<svg width="125" height="41" viewBox="0 0 125 41" fill="none" xmlns="http://www.w3.org/2000/svg"><path d="M.429 35.404H0v5.488h3.482v-.431H.43v-5.057zm33.893 2.745c0 1.388-1.049 2.436-2.437 2.436-1.389 0-2.437-1.048-2.437-2.436 0-1.39 1.048-2.436 2.437-2.436 1.388 0 2.437 1.047 2.437 2.436zm-2.437-2.85c-1.634 0-2.866 1.225-2.866 2.85 0 1.626 1.232 2.851 2.866 2.851 1.633 0 2.866-1.225 2.866-2.851 0-1.625-1.233-2.85-2.866-2.85zm30.695.415c.532 0 1.039.172 1.465.501l.057.044.277-.313-.063-.052a2.734 2.734 0 0 0-1.736-.595c-1.633 0-2.865 1.225-2.865 2.85 0 1.626 1.232 2.851 2.865 2.851a2.73 2.73 0 0 0 1.736-.597l.029-.023v-1.6h-2.139v.43h1.71v.969c-.4.266-.86.406-1.336.406-1.388 0-2.436-1.048-2.436-2.436 0-1.389 1.048-2.436 2.436-2.436zm29.383 5.178h.428v-5.488h-.428v5.488zm32.373-.808a2.379 2.379 0 0 1-1.465.5c-1.388 0-2.436-1.047-2.436-2.435 0-1.389 1.048-2.435 2.436-2.435a2.38 2.38 0 0 1 1.465.501l.057.044.277-.313-.063-.051a2.74 2.74 0 0 0-1.736-.596c-1.633 0-2.865 1.225-2.865 2.85 0 1.626 1.232 2.851 2.865 2.851.651 0 1.251-.206 1.736-.596l.063-.051-.278-.313-.056.044zM31.553 0h28.321v1.775H46.598V28.4h-1.77V1.775H31.553V0zm33.353.021h26.355v1.776H66.677v11.538H91.26v1.774H66.677v11.537H91.26v1.776H64.906V.022zm33.099 1.774v11.537h19.011a5.686 5.686 0 0 0 4.071-1.669 5.94 5.94 0 0 0 1.239-1.828 5.552 5.552 0 0 0 .461-2.254c0-.804-.155-1.556-.461-2.254a5.974 5.974 0 0 0-1.239-1.828 5.934 5.934 0 0 0-1.823-1.243 5.504 5.504 0 0 0-2.248-.461H98.005zM96.235.02h20.781a7.42 7.42 0 0 1 2.938.586c.921.39 1.723.929 2.408 1.614a7.544 7.544 0 0 1 1.61 2.414 7.5 7.5 0 0 1 .585 2.947 7.491 7.491 0 0 1-.585 2.947 7.332 7.332 0 0 1-1.61 2.396 7.666 7.666 0 0 1-2.408 1.597c-.921.39-1.9.586-2.938.586H98.005V28.42h-1.77V.02zM27.814 17.947a7.675 7.675 0 0 0-1.593-2.414 7.447 7.447 0 0 0-5.328-2.2H7.583a5.686 5.686 0 0 1-5.294-3.497 5.726 5.726 0 0 1-.443-2.255A5.734 5.734 0 0 1 3.511 3.5a5.917 5.917 0 0 1 1.823-1.243 5.506 5.506 0 0 1 2.248-.461h13.31c.803 0 1.552.154 2.249.461A5.933 5.933 0 0 1 24.964 3.5c.424.425.769.914 1.044 1.458h1.922c-.039-.107-.071-.216-.116-.322A7.675 7.675 0 0 0 26.22 2.22 7.308 7.308 0 0 0 23.83.605 7.436 7.436 0 0 0 20.893.02H7.583a7.437 7.437 0 0 0-2.94.586c-.92.39-1.716.929-2.389 1.615A7.677 7.677 0 0 0 .661 4.634a7.505 7.505 0 0 0-.585 2.947c0 1.042.195 2.024.585 2.947a7.46 7.46 0 0 0 1.593 2.396 7.43 7.43 0 0 0 2.39 1.598c.92.39 1.9.586 2.938.586h13.31c.803 0 1.553.153 2.249.461a5.95 5.95 0 0 1 1.823 1.242 5.732 5.732 0 0 1 1.664 4.083 5.724 5.724 0 0 1-1.664 4.082 5.69 5.69 0 0 1-4.071 1.67H7.583a5.496 5.496 0 0 1-2.25-.462 5.924 5.924 0 0 1-1.822-1.243 5.584 5.584 0 0 1-.772-.975H.737a7.636 7.636 0 0 0 1.517 2.254 7.286 7.286 0 0 0 2.39 1.614c.92.391 1.9.586 2.938.586h13.31a7.445 7.445 0 0 0 2.94-.586 7.433 7.433 0 0 0 2.389-1.598 7.442 7.442 0 0 0 1.593-2.396c.39-.922.584-1.904.584-2.946a7.504 7.504 0 0 0-.584-2.946z" fill="#333"/></svg>